<svg width="40" height="40" viewBox="0 0 40 40" fill="none" xmlns="http://www.w3.org/2000/svg">
<circle cx="20" cy="20" r="20" fill="black"/>
<path d="M22.8824 28.4976V31.3172L19.9586 32.7619L17.118 31.3172V28.4976L19.9586 29.9424L22.8824 28.4976ZM7.23828 18.7458L10.0789 20.1905V25.0256L14.9703 27.484V30.3035L7.23828 26.4704V18.7458ZM32.679 18.7458V26.482L24.8638 30.3152V27.4957L29.7552 25.0373V20.2021L32.679 18.7458ZM24.85 14.9126L27.7737 16.3573V19.1768L22.8824 21.6352V26.5403L20.0418 27.985L17.215 26.5403V21.6235L12.1435 19.1652V16.3456L15.0672 14.9009L19.9586 17.3593L24.85 14.9126ZM12.1435 21.1925L14.9841 22.6372V25.4567L12.1435 24.012V21.1925ZM27.7737 21.1925V24.012L24.9331 25.4567V22.6372L27.7737 21.1925ZM10.0789 12.4542L13.0026 13.8989L10.0789 15.3437V18.1632L7.23828 16.7185V13.8989L10.0789 12.4542ZM29.8384 12.4542L32.7621 13.8989V16.7185L29.8384 18.1632V15.3437L26.9978 13.8989L29.8384 12.4542ZM19.9586 12.4542L22.8824 13.8989L19.9586 15.3437L17.118 13.8989L19.9586 12.4542ZM19.9586 7.61905L27.7737 11.4522L24.9331 12.8969L20.0418 10.4386L15.0534 12.8969L12.2128 11.4522L19.9586 7.61905Z" fill="#F3BA2F"/>
</svg>
