<svg width="6" height="6" viewBox="0 0 6 6" fill="none" xmlns="http://www.w3.org/2000/svg">
<path d="M5.20866 1.23333C4.83099 1.13254 4.46202 1.00156 4.10533 0.841667C3.7544 0.689436 3.41563 0.510581 3.09199 0.306667L3.00033 0.25L2.91033 0.308333C2.58669 0.512247 2.24792 0.691103 1.89699 0.843333C1.53971 1.00274 1.17018 1.13316 0.791992 1.23333L0.666992 1.265V2.655C0.666992 4.88667 2.92199 5.72167 2.94366 5.73L3.00033 5.75L3.05699 5.73C3.08033 5.73 5.33366 4.88833 5.33366 2.655V1.265L5.20866 1.23333ZM5.00033 2.655C5.00033 4.48833 3.33366 5.25667 3.00033 5.39333C2.66699 5.25667 1.00033 4.48667 1.00033 2.655V1.52333C1.3519 1.42226 1.69606 1.29696 2.03033 1.14833C2.36461 1.00383 2.68869 0.836781 3.00033 0.648333C3.31196 0.836781 3.63604 1.00383 3.97033 1.14833C4.30459 1.29696 4.64875 1.42226 5.00033 1.52333V2.655Z" fill="white"/>
<path d="M1.81316 2.81166C1.78128 2.78436 1.74027 2.77009 1.69832 2.77171C1.65637 2.77333 1.61658 2.79072 1.5869 2.8204C1.55722 2.85008 1.53983 2.88987 1.53821 2.93182C1.53659 2.97377 1.55086 3.01478 1.57816 3.04666L2.57816 4.04666L4.39983 2.29499C4.43165 2.26405 4.44989 2.22174 4.45051 2.17735C4.45114 2.13297 4.4341 2.09015 4.40316 2.05833C4.37222 2.0265 4.3299 2.00827 4.28552 2.00765C4.24114 2.00702 4.19832 2.02405 4.16649 2.05499L2.58816 3.58666L1.81316 2.81166Z" fill="white"/>
</svg>
