<svg width="30" height="40" viewBox="0 0 30 40" fill="none" xmlns="http://www.w3.org/2000/svg">
<path fill-rule="evenodd" clip-rule="evenodd" d="M18 13.8693L27 9.64824V18.0905L18 13.8693ZM27 31.9598L15 37.5879L3 31.9598V22.1106L15 27.7387L27 22.1106V31.9598ZM3 9.64824L12 13.8693L3 18.0905V9.64824ZM16.5 15.8794L25.5 20.1005L16.5 24.3216V15.8794ZM13.5 24.3216L4.5 20.1005L13.5 15.8794V24.3216ZM25.5 7.63819L15 12.4623L4.5 7.63819L15 2.61307L25.5 7.63819ZM0 6.83417V33.1658L15 40L30 33.1658V6.83417L15 0L0 6.83417Z" fill="#627EEA"/>
</svg>
