<svg width="40" height="40" viewBox="0 0 40 40" fill="none" xmlns="http://www.w3.org/2000/svg">
<circle cx="20" cy="20" r="20" fill="#23AF91"/>
<path fill-rule="evenodd" clip-rule="evenodd" d="M14.6188 20L23.3427 27.7209L28.8083 22.8837C29.7542 22.1395 31.3308 22.1395 32.2768 22.9767C33.2228 23.814 33.2228 25.1163 32.3819 26.0465L25.0244 32.3721C24.0784 33.2093 22.5018 33.2093 21.5559 32.3721L11.0451 23.0698V28.6512C11.0451 29.8605 9.88897 30.8837 8.52257 30.8837C7.15618 30.8837 6 29.8605 6 28.6512V11.4419C6 10.2326 7.15618 9.2093 8.52257 9.2093C9.88897 9.2093 11.0451 10.2326 11.0451 11.4419V16.9302L21.5559 7.62791C22.5018 6.7907 24.0784 6.7907 25.0244 7.62791L32.2768 14.0465C33.1177 14.8837 33.1177 16.2791 32.1717 17.1163C31.2257 17.9535 29.7542 17.9535 28.7032 17.2093L23.2376 12.3721L14.6188 20ZM23.3427 17.8605C22.2916 17.8605 21.4508 18.4186 21.0303 19.2558C20.6099 20.093 20.8201 21.0233 21.5559 21.6744C22.2916 22.3256 23.3427 22.5116 24.2887 22.1395C25.2346 21.7674 25.8653 21.0233 25.8653 20.093C25.8653 19.5349 25.6551 18.9767 25.1295 18.5116C24.604 18.0465 23.9733 17.8605 23.3427 17.8605Z" fill="white"/>
</svg>
