<svg width="49" height="32" viewBox="0 0 49 32" fill="none" xmlns="http://www.w3.org/2000/svg">
<g filter="url(#filter0_d_267_41)">
<rect width="43.9812" height="27.9128" transform="matrix(0.999998 -0.00198501 0.00204435 0.999998 0 0.0872726)" fill="white"/>
</g>
<g clip-path="url(#clip0_267_41)">
<path d="M22.1373 12.2218C23.3673 12.2218 24.3736 13.2135 24.3736 14.4255C24.3736 15.6375 23.3673 16.6291 22.1373 16.6291C20.9073 16.6291 19.9009 15.6375 19.9009 14.4255C19.9009 13.2135 20.9073 12.2218 22.1373 12.2218ZM22.1373 10.7527C20.0798 10.7527 18.41 12.3981 18.41 14.4255C18.41 16.4528 20.0798 18.0982 22.1373 18.0982C24.1947 18.0982 25.8645 16.4528 25.8645 14.4255C25.8645 12.3981 24.1947 10.7527 22.1373 10.7527ZM14.6828 15.16H16.1737C16.5837 15.16 16.9192 14.8295 16.9192 14.4255C16.9192 14.0215 16.5837 13.6909 16.1737 13.6909H14.6828C14.2728 13.6909 13.9374 14.0215 13.9374 14.4255C13.9374 14.8295 14.2728 15.16 14.6828 15.16ZM28.1008 15.16H29.5917C30.0017 15.16 30.3372 14.8295 30.3372 14.4255C30.3372 14.0215 30.0017 13.6909 29.5917 13.6909H28.1008C27.6908 13.6909 27.3554 14.0215 27.3554 14.4255C27.3554 14.8295 27.6908 15.16 28.1008 15.16ZM21.3918 7.08V8.54909C21.3918 8.95309 21.7273 9.28364 22.1373 9.28364C22.5473 9.28364 22.8827 8.95309 22.8827 8.54909V7.08C22.8827 6.676 22.5473 6.34545 22.1373 6.34545C21.7273 6.34545 21.3918 6.676 21.3918 7.08ZM21.3918 20.3018V21.7709C21.3918 22.1749 21.7273 22.5055 22.1373 22.5055C22.5473 22.5055 22.8827 22.1749 22.8827 21.7709V20.3018C22.8827 19.8978 22.5473 19.5673 22.1373 19.5673C21.7273 19.5673 21.3918 19.8978 21.3918 20.3018ZM17.6571 8.97513C17.5882 8.90703 17.5063 8.85301 17.4161 8.81615C17.3259 8.77929 17.2292 8.76032 17.1316 8.76032C17.034 8.76032 16.9373 8.77929 16.8471 8.81615C16.757 8.85301 16.675 8.90703 16.6061 8.97513C16.537 9.04308 16.4821 9.1238 16.4447 9.21266C16.4073 9.30152 16.3881 9.39678 16.3881 9.49298C16.3881 9.58919 16.4073 9.68445 16.4447 9.77331C16.4821 9.86217 16.537 9.94288 16.6061 10.0108L17.3962 10.7895C17.687 11.0759 18.1641 11.0759 18.4473 10.7895C18.7306 10.503 18.738 10.0329 18.4473 9.75375L17.6571 8.97513ZM26.8783 18.0615C26.8093 17.9934 26.7274 17.9394 26.6372 17.9025C26.5471 17.8656 26.4504 17.8467 26.3528 17.8467C26.2551 17.8467 26.1585 17.8656 26.0683 17.9025C25.9781 17.9394 25.8962 17.9934 25.8272 18.0615C25.7581 18.1294 25.7033 18.2101 25.6659 18.299C25.6285 18.3879 25.6092 18.4831 25.6092 18.5793C25.6092 18.6755 25.6285 18.7708 25.6659 18.8597C25.7033 18.9485 25.7581 19.0292 25.8272 19.0972L26.6174 19.8758C26.9081 20.1623 27.3852 20.1623 27.6685 19.8758C27.7376 19.8078 27.7924 19.7271 27.8298 19.6383C27.8672 19.5494 27.8865 19.4542 27.8865 19.358C27.8865 19.2617 27.8672 19.1665 27.8298 19.0776C27.7924 18.9888 27.7376 18.908 27.6685 18.8401L26.8783 18.0615ZM27.6685 10.0108C27.7376 9.94288 27.7924 9.86217 27.8298 9.77331C27.8672 9.68445 27.8865 9.58919 27.8865 9.49298C27.8865 9.39678 27.8672 9.30152 27.8298 9.21266C27.7924 9.1238 27.7376 9.04308 27.6685 8.97513C27.5995 8.90703 27.5176 8.85301 27.4274 8.81615C27.3372 8.77929 27.2406 8.76032 27.1429 8.76032C27.0453 8.76032 26.9486 8.77929 26.8585 8.81615C26.7683 8.85301 26.6864 8.90703 26.6174 8.97513L25.8272 9.75375C25.5365 10.0402 25.5365 10.5103 25.8272 10.7895C26.1179 11.0686 26.595 11.0759 26.8783 10.7895L27.6685 10.0108ZM18.4473 19.0972C18.5164 19.0292 18.5713 18.9485 18.6087 18.8597C18.6461 18.7708 18.6653 18.6755 18.6653 18.5793C18.6653 18.4831 18.6461 18.3879 18.6087 18.299C18.5713 18.2101 18.5164 18.1294 18.4473 18.0615C18.3784 17.9934 18.2964 17.9394 18.2063 17.9025C18.1161 17.8656 18.0194 17.8467 17.9218 17.8467C17.8242 17.8467 17.7275 17.8656 17.6373 17.9025C17.5471 17.9394 17.4652 17.9934 17.3962 18.0615L16.6061 18.8401C16.3153 19.1266 16.3153 19.5967 16.6061 19.8758C16.8968 20.1549 17.3739 20.1623 17.6571 19.8758L18.4473 19.0972Z" fill="black"/>
</g>
<defs>
<filter id="filter0_d_267_41" x="0" y="-3.05176e-05" width="48.0382" height="32" filterUnits="userSpaceOnUse" color-interpolation-filters="sRGB">
<feFlood flood-opacity="0" result="BackgroundImageFix"/>
<feColorMatrix in="SourceAlpha" type="matrix" values="0 0 0 0 0 0 0 0 0 0 0 0 0 0 0 0 0 0 127 0" result="hardAlpha"/>
<feOffset dx="2" dy="2"/>
<feGaussianBlur stdDeviation="1"/>
<feComposite in2="hardAlpha" operator="out"/>
<feColorMatrix type="matrix" values="0 0 0 0 0 0 0 0 0 0 0 0 0 0 0 0 0 0 0.1 0"/>
<feBlend mode="normal" in2="BackgroundImageFix" result="effect1_dropShadow_267_41"/>
<feBlend mode="normal" in="SourceGraphic" in2="effect1_dropShadow_267_41" result="shape"/>
</filter>
<clipPath id="clip0_267_41">
<rect width="17.8907" height="17.6291" fill="white" transform="translate(13.1919 5.6109)"/>
</clipPath>
</defs>
</svg>
