<svg width="17" height="17" viewBox="0 0 17 17" fill="none" xmlns="http://www.w3.org/2000/svg">
<path d="M15.5267 4.68917C15.4548 4.51609 15.3173 4.37854 15.1442 4.30667C15.059 4.27037 14.9676 4.25112 14.875 4.25H11.3333C11.1455 4.25 10.9653 4.32463 10.8325 4.45747C10.6996 4.5903 10.625 4.77047 10.625 4.95833C10.625 5.14619 10.6996 5.32636 10.8325 5.4592C10.9653 5.59204 11.1455 5.66667 11.3333 5.66667H13.1679L9.20834 9.62625L6.87792 7.28875C6.81208 7.22236 6.73373 7.16966 6.64742 7.1337C6.5611 7.09774 6.46852 7.07923 6.37501 7.07923C6.2815 7.07923 6.18892 7.09774 6.1026 7.1337C6.01628 7.16966 5.93794 7.22236 5.87209 7.28875L1.62209 11.5387C1.5557 11.6046 1.503 11.6829 1.46704 11.7693C1.43108 11.8556 1.41257 11.9482 1.41257 12.0417C1.41257 12.1352 1.43108 12.2278 1.46704 12.3141C1.503 12.4004 1.5557 12.4787 1.62209 12.5446C1.68794 12.611 1.76628 12.6637 1.8526 12.6996C1.93892 12.7356 2.0315 12.7541 2.12501 12.7541C2.21852 12.7541 2.3111 12.7356 2.39742 12.6996C2.48373 12.6637 2.56208 12.611 2.62792 12.5446L6.37501 8.79042L8.70542 11.1279C8.77127 11.1943 8.84962 11.247 8.93593 11.283C9.02225 11.3189 9.11483 11.3374 9.20834 11.3374C9.30185 11.3374 9.39443 11.3189 9.48075 11.283C9.56707 11.247 9.64541 11.1943 9.71126 11.1279L14.1667 6.66542V8.5C14.1667 8.68786 14.2413 8.86803 14.3741 9.00087C14.507 9.1337 14.6871 9.20833 14.875 9.20833C15.0629 9.20833 15.243 9.1337 15.3759 9.00087C15.5087 8.86803 15.5833 8.68786 15.5833 8.5V4.95833C15.5822 4.86577 15.563 4.77432 15.5267 4.68917Z" fill="#D4A838"/>
</svg>
