<svg width="43" height="40" viewBox="0 0 43 40" fill="none" xmlns="http://www.w3.org/2000/svg">
<path d="M41.8038 0L23.8599 13.5502L27.1967 5.56467L41.8038 0Z" fill="#E17726"/>
<path d="M1.96637 0.0158997L16.5342 5.56553L19.7027 13.656L1.96637 0.0158997ZM34.5829 28.8176L42.5135 28.9718L39.7418 38.5812L30.0644 35.862L34.5829 28.8176ZM9.14524 28.8176L13.647 35.862L3.98548 38.5816L1.23096 28.9718L9.14524 28.8176Z" fill="#E27625"/>
<path d="M19.2714 11.5953L19.5957 22.2788L9.89697 21.8283L12.6556 17.5808L12.6908 17.5399L19.2714 11.5953ZM24.3554 11.4758L31.0364 17.5403L31.0712 17.5812L33.8298 21.8283L24.1335 22.2788L24.3554 11.4758ZM13.9303 28.8485L19.226 33.0596L13.0745 36.0906L13.9303 28.8485ZM29.7977 28.8481L30.6359 36.0906L24.5016 33.0592L29.7977 28.8481Z" fill="#E27625"/>
<path d="M24.6373 32.6626L30.8621 35.7387L25.0718 38.5473L25.132 36.6911L24.6373 32.6626ZM19.0886 32.6638L18.6136 36.6606L18.6525 38.5453L12.8486 35.7387L19.0886 32.6638Z" fill="#D5BFB2"/>
<path d="M17.2907 23.6729L18.9175 27.1619L13.3794 25.5062L17.2907 23.6729ZM26.4358 23.6733L30.3659 25.5062L24.8098 27.1615L26.4358 23.6733Z" fill="#233447"/>
<path d="M14.3535 28.8129L13.4584 36.3217L8.66016 28.9772L14.3535 28.8129ZM29.3737 28.8129L35.0674 28.9772L30.2512 36.3221L29.3737 28.8129ZM33.97 21.4037L29.8262 25.7134L26.6319 24.2236L25.1021 27.5049L24.0997 21.8621L33.97 21.4037ZM9.75509 21.4037L19.6271 21.8621L18.6243 27.5049L17.0945 24.2241L13.9166 25.7134L9.75509 21.4037Z" fill="#CC6228"/>
<path d="M9.47607 20.5194L14.1637 25.3741L14.3263 30.1669L9.47607 20.5194ZM34.2561 20.5107L29.3973 30.1753L29.5799 25.3741L34.2561 20.5107ZM19.398 20.8149L19.5868 22.0272L20.0532 25.0465L19.7534 34.3195L18.3362 26.8702L18.3358 26.7933L19.398 20.8149ZM24.3268 20.7982L25.3919 26.7933L25.3914 26.8702L23.971 34.3383L23.9145 32.4704L23.693 24.9913L24.3268 20.7982Z" fill="#E27525"/>
<path d="M29.9967 25.181L29.8382 29.3453L24.8926 33.2777L23.8931 32.5569L25.0134 26.6658L29.9967 25.181ZM13.7476 25.1814L18.7136 26.6662L19.834 32.5569L18.8344 33.2777L13.8888 29.3449L13.7476 25.1814Z" fill="#F5841F"/>
<path d="M11.9023 34.8194L18.2291 37.8788L18.2025 36.572L18.7319 36.0981H24.994L25.5423 36.5708L25.5017 37.8763L31.7888 34.8269L28.7296 37.407L25.0304 40H18.6812L14.9844 37.3961L11.9023 34.8194Z" fill="#C0AC9D"/>
<path d="M24.1837 32.2555L25.0784 32.9003L25.6025 37.1687L24.8438 36.5151H18.8855L18.1411 37.1821L18.6485 32.9008L19.5431 32.2555H24.1837Z" fill="#161616"/>
<path d="M40.6189 0.375275L42.7728 6.96964L41.4277 13.6376L42.3854 14.3919L41.0894 15.4011L42.0636 16.1687L40.7737 17.3677L41.5656 17.9531L39.4638 20.458L30.8436 17.8967L30.7691 17.8558L24.5574 12.508L40.6189 0.375275ZM3.10841 0.375275L19.1704 12.508L12.9583 17.8558L12.8837 17.8967L4.26354 20.458L2.16212 17.9531L2.95322 17.3681L1.6638 16.1687L2.63629 15.4019L1.32066 14.3898L2.31486 13.635L0.95459 6.97006L3.10841 0.375275Z" fill="#763E1A"/>
<path d="M30.4218 17.3364L39.5555 20.0506L42.5229 29.3838H34.6947L29.3003 29.4532L33.223 21.6499L30.4218 17.3364ZM13.3055 17.3364L10.5034 21.6499L14.427 29.4532L9.03548 29.3838H1.2207L4.17177 20.0506L13.3055 17.3364ZM27.644 5.51999L25.0888 12.5619L24.5467 22.0744L24.3395 25.0561L24.3231 32.6731H19.4041L19.3882 25.0703L19.1802 22.0719L18.6376 12.5619L16.0833 5.51999H27.644Z" fill="#F5841F"/>
</svg>
