<svg width="42" height="19" viewBox="0 0 42 19" fill="none" xmlns="http://www.w3.org/2000/svg">
<path d="M31.3316 7.69209C30.4439 6.81645 30.4439 5.42749 31.3316 4.55185C32.2194 3.6762 33.6276 3.6762 34.5153 4.55185C35.4031 5.42749 35.4031 6.81645 34.5153 7.69209C33.6276 8.56774 32.2194 8.56774 31.3316 7.69209ZM23.801 15.1502C23.1582 14.5161 23.1582 13.4593 23.801 12.795C24.4439 12.1609 25.5153 12.1609 26.1888 12.795C26.8316 13.4291 26.8316 14.4859 26.1888 15.1502C25.5153 15.7843 24.4439 15.7843 23.801 15.1502ZM35.7092 11.2249C35.0663 10.5908 35.0663 9.53397 35.7092 8.86968C36.352 8.23559 37.4235 8.23559 38.0969 8.86968C38.7398 9.50377 38.7398 10.5606 38.0969 11.2249C37.4235 11.8892 36.352 11.8892 35.7092 11.2249ZM31.7296 15.1502C31.0867 14.5161 31.0867 13.4593 31.7296 12.795C32.3725 12.1609 33.4439 12.1609 34.1174 12.795C34.7602 13.4291 34.7602 14.4859 34.1174 15.1502C33.4439 15.7843 32.4031 15.7843 31.7296 15.1502ZM40.0867 14.7576C39.6582 14.3349 39.6582 13.6103 40.0867 13.1875C40.5153 12.7648 41.25 12.7648 41.6786 13.1875C42.1071 13.6103 42.1071 14.3349 41.6786 14.7576C41.2194 15.1804 40.5153 15.1804 40.0867 14.7576ZM36.1071 18.683C35.6786 18.2602 35.6786 17.5356 36.1071 17.1128C36.5357 16.6901 37.2704 16.6901 37.699 17.1128C38.1276 17.5356 38.1276 18.2602 37.699 18.683C37.2398 19.1057 36.5357 19.1057 36.1071 18.683ZM27.352 11.6174C26.4643 10.7418 26.4643 9.3528 27.352 8.47716C28.2398 7.60151 29.648 7.60151 30.5357 8.47716C31.4235 9.3528 31.4235 10.7418 30.5357 11.6174C29.6786 12.493 28.2398 12.493 27.352 11.6174ZM27.352 3.79698C26.4643 2.92133 26.4643 1.53238 27.352 0.656734C28.2398 -0.218911 29.648 -0.218911 30.5357 0.656734C31.4235 1.53238 31.4235 2.92133 30.5357 3.79698C29.6786 4.64243 28.2398 4.64243 27.352 3.79698ZM23.4031 7.69209C22.5153 6.81645 22.5153 5.42749 23.4031 4.55185C24.2908 3.6762 25.699 3.6762 26.5867 4.55185C27.4745 5.42749 27.4745 6.81645 26.5867 7.69209C25.699 8.56774 24.2602 8.56774 23.4031 7.69209ZM15.4133 7.69209C14.5255 6.81645 14.5255 5.42749 15.4133 4.55185C16.301 3.6762 17.7092 3.6762 18.5969 4.55185C19.4847 5.42749 19.4847 6.81645 18.5969 7.69209C17.7092 8.56774 16.301 8.56774 15.4133 7.69209ZM7.85204 15.1502C7.20918 14.5161 7.20918 13.4593 7.85204 12.795C8.4949 12.1609 9.56633 12.1609 10.2398 12.795C10.8827 13.4291 10.8827 14.4859 10.2398 15.1502C9.59694 15.7843 8.52551 15.7843 7.85204 15.1502ZM19.7908 11.2249C19.148 10.5908 19.148 9.53397 19.7908 8.86968C20.4337 8.23559 21.5051 8.23559 22.1786 8.86968C22.8214 9.50377 22.8214 10.5606 22.1786 11.2249C21.5051 11.8892 20.4337 11.8892 19.7908 11.2249ZM15.8112 15.1502C15.1684 14.5161 15.1684 13.4593 15.8112 12.795C16.4541 12.1609 17.5255 12.1609 18.199 12.795C18.8418 13.4291 18.8418 14.4859 18.199 15.1502C17.5255 15.7843 16.4541 15.7843 15.8112 15.1502ZM0.321429 14.7576C-0.107143 14.3349 -0.107143 13.6103 0.321429 13.1875C0.75 12.7648 1.48469 12.7648 1.91327 13.1875C2.34184 13.6103 2.34184 14.3349 1.91327 14.7576C1.45408 15.1804 0.75 15.1804 0.321429 14.7576ZM4.30102 18.683C3.87245 18.2602 3.87245 17.5356 4.30102 17.1128C4.72959 16.6901 5.46429 16.6901 5.89286 17.1128C6.32143 17.5356 6.32143 18.2602 5.89286 18.683C5.43367 19.1057 4.72959 19.1057 4.30102 18.683ZM20.1888 18.683C19.7602 18.2602 19.7602 17.5356 20.1888 17.1128C20.6173 16.6901 21.352 16.6901 21.7806 17.1128C22.2092 17.5356 22.2092 18.2602 21.7806 18.683C21.3214 19.1057 20.6173 19.1057 20.1888 18.683ZM3.90306 11.2249C3.2602 10.5908 3.2602 9.53397 3.90306 8.86968C4.54592 8.23559 5.61735 8.23559 6.29082 8.86968C6.93367 9.50377 6.93367 10.5606 6.29082 11.2249C5.61735 11.8892 4.54592 11.8892 3.90306 11.2249ZM11.4337 11.6174C10.5459 10.7418 10.5459 9.3528 11.4337 8.47716C12.3214 7.60151 13.7296 7.60151 14.6173 8.47716C15.5051 9.3528 15.5051 10.7418 14.6173 11.6174C13.7296 12.493 12.3214 12.493 11.4337 11.6174ZM11.4337 3.79698C10.5459 2.92133 10.5459 1.53238 11.4337 0.656734C12.3214 -0.218911 13.7296 -0.218911 14.6173 0.656734C15.5051 1.53238 15.5051 2.92133 14.6173 3.79698C13.7296 4.64243 12.3214 4.64243 11.4337 3.79698ZM7.45408 7.69209C6.56633 6.81645 6.56633 5.42749 7.45408 4.55185C8.34184 3.6762 9.75 3.6762 10.6378 4.55185C11.5255 5.42749 11.5255 6.81645 10.6378 7.69209C9.78061 8.56774 8.34184 8.56774 7.45408 7.69209Z" fill="black"/>
</svg>
