<svg width="40" height="40" viewBox="0 0 40 40" fill="none" xmlns="http://www.w3.org/2000/svg">
<circle cx="20" cy="20" r="20" fill="white"/>
<path d="M27.3086 18.9131L24.2501 16.8886C24.0386 16.7487 23.7946 16.6741 23.5425 16.6741C23.2984 16.6741 23.0544 16.7487 22.8348 16.8886L16.4738 21.1055L13.8871 19.3889V15.9557L16.4738 14.2391L19.0605 15.9557V17.8029L20.9476 16.5434V15.6385C20.9476 15.3493 20.8826 15.0787 20.7605 14.8268C20.6385 14.5843 20.4596 14.379 20.24 14.2297L17.1815 12.2146C16.97 12.0746 16.726 12 16.4738 12C16.2217 12 15.9858 12.0746 15.7661 12.2146L12.7077 14.2391C12.4962 14.379 12.3172 14.5843 12.1952 14.8362C12.0732 15.0787 12.0081 15.3586 12 15.6478V19.6968C12 19.986 12.0651 20.2566 12.1871 20.5085C12.3091 20.751 12.4881 20.9563 12.6995 21.1055L15.758 23.13C15.9776 23.27 16.2135 23.3446 16.4657 23.3446C16.7178 23.3446 16.9537 23.27 17.1734 23.13L23.5343 18.9038L26.121 20.6204V24.0443L23.5343 25.7609L20.9476 24.0443V22.1784L19.0605 23.4286V24.3615C19.0605 24.6414 19.1256 24.9213 19.2476 25.1638C19.3696 25.4064 19.5486 25.6117 19.76 25.7516L22.8185 27.7854C23.03 27.9254 23.274 28 23.5262 28C23.7783 28 24.0224 27.9254 24.2339 27.7854L27.2923 25.7609C27.5038 25.621 27.6828 25.4157 27.8129 25.1638C27.9349 24.9213 28 24.6414 28 24.3522V20.3032C28 20.014 27.9349 19.7341 27.8129 19.4915C27.699 19.2676 27.5201 19.0624 27.3086 18.9131Z" fill="#5C4B9A"/>
</svg>
