<svg width="34" height="30" viewBox="0 0 34 30" fill="none" xmlns="http://www.w3.org/2000/svg">
<path fill-rule="evenodd" clip-rule="evenodd" d="M34 17.3729V19.4915C34 25.4237 22.8129 28.8136 19.4129 29.661L18.2065 30V26.3559L18.8645 26.1864C24.2387 24.661 29.6129 22.0339 29.6129 19.4915V17.3729H34ZM17 0L21.6065 1.10169V4.83051L17 3.72881L16.671 3.81356V12.2034H21.4968V15.678H16.671V29.9153L15.3548 29.5763C14.8065 29.4068 13.8194 29.1525 12.6129 28.7288L12.0645 28.5593V1.10169L17 0ZM10.7484 1.52542V5.25424L4.49677 6.69491V12.2034H10.7484V28.2203L9.32258 27.7119C5.04516 26.0169 0 23.2203 0 19.2373V17.3729H4.49677V19.2373C4.49677 20.0847 5.04516 20.9322 6.14194 21.7797V15.678H0V3.98305L10.7484 1.52542ZM22.9226 1.44068L33.8903 4.0678V15.7627H27.4194V20.8475C27.4194 20.8475 25.9935 22.2881 22.9226 23.4746C22.9226 22.7966 22.9226 12.5424 22.9226 6.27119V1.44068ZM27.529 6.18644V12.2034H29.5032V6.69491L27.529 6.18644Z" fill="#050101"/>
</svg>
