<svg width="40" height="40" viewBox="0 0 40 40" fill="none" xmlns="http://www.w3.org/2000/svg">
<circle cx="20" cy="20" r="20" fill="#3375BB"/>
<path d="M20.2636 10.125C23.7671 13.0557 27.7957 12.8711 28.9421 12.8711C28.6957 29.5096 26.7778 27.2942 20.2636 31.9557C13.7493 27.2942 11.8528 29.5096 11.5957 12.8711C12.7421 12.8711 16.76 13.0442 20.2636 10.125Z" fill="#3375BB"/>
<path d="M20.2633 10.125L20.7669 9.42116C20.4669 9.16731 20.049 9.16731 19.749 9.42116L20.2633 10.125ZM28.9419 12.8712L29.7669 12.8827C29.7669 12.6404 29.6811 12.4096 29.5311 12.2481C29.3704 12.075 29.1669 11.9827 28.9419 11.9827V12.8712ZM20.2633 31.9558L19.8026 32.6942C20.0811 32.8904 20.4454 32.8904 20.724 32.6942L20.2633 31.9558ZM11.5954 12.8712V11.9827C11.3704 11.9827 11.1561 12.075 11.0061 12.2481C10.8454 12.4212 10.7597 12.6519 10.7704 12.8827L11.5954 12.8712ZM19.7597 10.8289C23.5204 13.9673 27.8169 13.7596 28.9419 13.7596V11.9712C27.774 11.9712 24.024 12.1327 20.7669 9.40962L19.7597 10.8289ZM28.1169 12.8481C28.0526 16.9904 27.8919 19.9096 27.5811 22.0789C27.2704 24.225 26.8311 25.5058 26.2633 26.4058C25.6847 27.3404 24.9669 27.8942 23.9061 28.5865C22.8347 29.2788 21.474 30.0289 19.8026 31.2173L20.724 32.7058C22.3097 31.5635 23.6383 30.8365 24.7633 30.1212C25.899 29.3942 26.8954 28.5865 27.6454 27.4096C28.4061 26.1981 28.899 24.6288 29.2204 22.3558C29.5419 20.1058 29.7133 17.0712 29.7776 12.8827L28.1169 12.8481ZM20.724 31.2173C19.0526 30.0289 17.7026 29.2788 16.6204 28.5865C15.5597 27.9058 14.8419 27.3404 14.2633 26.4058C13.6954 25.5058 13.2561 24.225 12.9561 22.0789C12.6454 19.9096 12.4847 16.9904 12.4204 12.8481L10.7704 12.8827C10.8347 17.0596 11.0061 20.1058 11.3276 22.3558C11.649 24.6288 12.1419 26.1981 12.9026 27.4096C13.6526 28.5865 14.649 29.3827 15.774 30.1212C16.899 30.8481 18.2169 31.575 19.8026 32.7058L20.724 31.2173ZM11.5954 13.7596C12.7097 13.7596 17.0169 13.9558 20.7669 10.8289L19.749 9.42116C16.5026 12.1327 12.7526 11.9712 11.5954 11.9712V13.7596Z" fill="white"/>
</svg>
