<svg width="43" height="24" viewBox="0 0 43 24" fill="none" xmlns="http://www.w3.org/2000/svg">
<path d="M9.52064 4.69013C16.3382 -1.56338 27.3892 -1.56338 34.2155 4.69013L35.0358 5.44187C35.3797 5.75579 35.3797 6.2597 35.0358 6.57362L32.2311 9.15102C32.0636 9.30798 31.7813 9.30798 31.6138 9.15102L30.4848 8.11841C25.7311 3.75665 18.0139 3.75665 13.2601 8.11841L12.0519 9.22537C11.8843 9.38233 11.6021 9.38233 11.4345 9.22537L8.62104 6.64796C8.27707 6.33405 8.27707 5.83013 8.62104 5.51622L9.52064 4.69013ZM40.0188 10.0102L42.5148 12.2984C42.8588 12.6123 42.8588 13.1163 42.5148 13.4302L31.2522 23.7646C30.9082 24.0785 30.3614 24.0785 30.0174 23.7646L22.018 16.4289C21.9298 16.3545 21.7975 16.3545 21.7093 16.4289L13.7188 23.7646C13.3748 24.0785 12.828 24.0785 12.484 23.7646L1.21256 13.4384C0.868599 13.1245 0.868599 12.6206 1.21256 12.3067L3.70851 10.0184C4.05248 9.7045 4.59929 9.7045 4.94326 10.0184L12.9426 17.3541C13.0308 17.4284 13.1631 17.4284 13.2513 17.3541L21.2419 10.0184C21.5859 9.7045 22.1327 9.7045 22.4766 10.0184L30.476 17.3541C30.5642 17.4284 30.6965 17.4284 30.7847 17.3541L38.7841 10.0184C39.1192 9.69624 39.6749 9.69624 40.0188 10.0102Z" fill="#3A99FB"/>
</svg>
