<svg width="12" height="14" viewBox="0 0 12 14" fill="none" xmlns="http://www.w3.org/2000/svg">
<path d="M8.09779 12.2483C7.99935 12.7427 7.73634 13.1871 7.35332 13.5064C6.9703 13.8256 6.49082 14 5.99614 14C5.50146 14 5.02198 13.8256 4.63896 13.5064C4.25594 13.1871 3.99293 12.7427 3.89449 12.2483H8.09779ZM5.99442 0C8.69569 0 10.9217 2.04255 11.1276 4.68431L11.1388 4.87938L11.143 5.07532L11.1422 8.22968L11.9605 10.4927L11.982 10.567L11.9957 10.6423L12 10.7201C12 10.9957 11.8319 11.2362 11.5522 11.3386L11.4544 11.3674L11.3566 11.3762H0.635642C0.559786 11.3759 0.48457 11.362 0.413468 11.3351C0.167274 11.2432 0.0051469 11.0096 0 10.7087L0.00343122 10.6064L0.0325971 10.4927L0.847523 8.23231L0.849239 5.06745L0.85267 4.87063C0.958182 2.14402 3.22625 0 5.99442 0Z" fill="white"/>
</svg>
