<svg width="10" height="15" viewBox="0 0 10 15" fill="none" xmlns="http://www.w3.org/2000/svg">
<g clip-path="url(#clip0_274_47)">
<path d="M9.15688 8.53939C9.13861 8.48819 9.11689 8.43828 9.09188 8.39001L9.095 8.39689C9.00375 8.18377 8.27 6.76626 8.1475 6.57314L4.74062 -0.000610352L1.24687 6.73439C1.12812 6.92814 0.476875 8.18439 0.386875 8.39689L0.35125 8.47564C0.11889 9.04196 0.000383278 9.64851 0.00249978 10.2606C0.00249978 11.5174 0.50176 12.7228 1.39045 13.6114C2.27914 14.5001 3.48445 14.9994 4.74125 14.9994C5.99804 14.9994 7.20336 14.5001 8.09205 13.6114C8.98074 12.7228 9.48 11.5174 9.48 10.2606V10.2569L9.48063 10.1938C9.48063 9.59689 9.36187 9.02752 9.14625 8.50877L9.15688 8.53814V8.53939ZM4.74312 13.7613C4.13692 13.7614 3.54114 13.6037 3.01442 13.3036C2.48771 13.0035 2.04822 12.5714 1.73923 12.0499C1.43024 11.5283 1.2624 10.9353 1.25224 10.3292C1.24207 9.72307 1.38993 9.12475 1.68125 8.59314L1.67187 8.61127C1.62609 8.85464 1.60308 9.10175 1.60312 9.34939V9.35001C1.60379 10.4597 2.04492 11.5238 2.82961 12.3085C3.61431 13.0932 4.6784 13.5344 5.78813 13.535C5.85875 13.535 5.93437 13.535 6.00437 13.5313C5.60492 13.6848 5.18043 13.7628 4.7525 13.7613H4.73812H4.73875H4.74312Z" fill="white"/>
</g>
<defs>
<clipPath id="clip0_274_47">
<rect width="9.38" height="15" fill="white"/>
</clipPath>
</defs>
</svg>
