<svg width="15" height="15" viewBox="0 0 15 15" fill="none" xmlns="http://www.w3.org/2000/svg">
<path d="M4.33594 3.66211C4.27148 3.66211 4.21875 3.71484 4.21875 3.7793V4.48242C4.21875 4.54688 4.27148 4.59961 4.33594 4.59961H9.96094C10.0254 4.59961 10.0781 4.54688 10.0781 4.48242V3.7793C10.0781 3.71484 10.0254 3.66211 9.96094 3.66211H4.33594ZM7.03125 5.77148H4.33594C4.27148 5.77148 4.21875 5.82422 4.21875 5.88867V6.5918C4.21875 6.65625 4.27148 6.70898 4.33594 6.70898H7.03125C7.0957 6.70898 7.14844 6.65625 7.14844 6.5918V5.88867C7.14844 5.82422 7.0957 5.77148 7.03125 5.77148ZM6.32812 12.4805H3.04688V2.16797H11.25V6.85547C11.25 6.91992 11.3027 6.97266 11.3672 6.97266H12.1875C12.252 6.97266 12.3047 6.91992 12.3047 6.85547V1.58203C12.3047 1.32275 12.0952 1.11328 11.8359 1.11328H2.46094C2.20166 1.11328 1.99219 1.32275 1.99219 1.58203V13.0664C1.99219 13.3257 2.20166 13.5352 2.46094 13.5352H6.32812C6.39258 13.5352 6.44531 13.4824 6.44531 13.418V12.5977C6.44531 12.5332 6.39258 12.4805 6.32812 12.4805ZM12.7734 11.1914H10.6641V10.6553C11.3423 10.4531 11.8359 9.82617 11.8359 9.08203C11.8359 8.17529 11.1021 7.44141 10.1953 7.44141C9.28857 7.44141 8.55469 8.17529 8.55469 9.08203C8.55469 9.82471 9.04834 10.4531 9.72656 10.6553V11.1914H7.61719C7.48828 11.1914 7.38281 11.2969 7.38281 11.4258V13.6523C7.38281 13.7812 7.48828 13.8867 7.61719 13.8867H12.7734C12.9023 13.8867 13.0078 13.7812 13.0078 13.6523V11.4258C13.0078 11.2969 12.9023 11.1914 12.7734 11.1914ZM9.46289 9.08203C9.46289 8.67773 9.79102 8.34961 10.1953 8.34961C10.5996 8.34961 10.9277 8.67773 10.9277 9.08203C10.9277 9.48633 10.5996 9.81445 10.1953 9.81445C9.79102 9.81445 9.46289 9.48633 9.46289 9.08203ZM12.0996 12.9785H8.29102V12.0996H12.0996V12.9785Z" fill="white"/>
</svg>
