<svg width="13" height="15" viewBox="0 0 13 15" fill="none" xmlns="http://www.w3.org/2000/svg">
<path d="M6.5 0C2.91015 0 0 3.35786 0 7.5C0 11.6421 2.91015 15 6.5 15C10.0899 15 13 11.6421 13 7.5C13 3.35786 10.0899 0 6.5 0ZM6.45319 3.43322C7.33097 3.43805 8.13331 4.08392 8.47413 4.98505C8.59071 5.29891 8.65265 5.62134 8.65265 5.97108V6.86281H9.71747V11.5668H3.28253V6.86279H4.26166C4.25279 6.23271 4.24155 5.51191 4.43304 4.98502C4.80539 4.03616 5.5754 3.4284 6.45319 3.43322ZM6.40558 4.93103C5.91937 4.94282 5.59871 5.36944 5.5518 5.97105V6.86279H7.36248V5.96191C7.34016 5.3914 6.96594 4.94674 6.45317 4.93103C6.43731 4.93059 6.42144 4.93059 6.40558 4.93103Z" fill="white"/>
</svg>
