<svg width="15" height="15" viewBox="0 0 15 15" fill="none" xmlns="http://www.w3.org/2000/svg">
<path d="M11.6964 7.75C12.0753 7.75 12.4387 7.88696 12.7066 8.13076C12.9745 8.37456 13.125 8.70522 13.125 9.05V12.95C13.125 13.2948 12.9745 13.6254 12.7066 13.8692C12.4387 14.113 12.0753 14.25 11.6964 14.25H4.55357C4.17469 14.25 3.81133 14.113 3.54342 13.8692C3.27551 13.6254 3.125 13.2948 3.125 12.95V9.05C3.125 8.70522 3.27551 8.37456 3.54342 8.13076C3.81133 7.88696 4.17469 7.75 4.55357 7.75V4.5C4.55357 3.63805 4.92985 2.8114 5.59962 2.2019C6.26939 1.59241 7.1778 1.25 8.125 1.25C9.0722 1.25 9.98061 1.59241 10.6504 2.2019C11.3202 2.8114 11.6964 3.63805 11.6964 4.5V7.75ZM8.125 12.3C8.50388 12.3 8.86724 12.163 9.13515 11.9192C9.40306 11.6754 9.55357 11.3448 9.55357 11C9.55357 10.6552 9.40306 10.3246 9.13515 10.0808C8.86724 9.83696 8.50388 9.7 8.125 9.7C7.74612 9.7 7.38276 9.83696 7.11485 10.0808C6.84694 10.3246 6.69643 10.6552 6.69643 11C6.69643 11.3448 6.84694 11.6754 7.11485 11.9192C7.38276 12.163 7.74612 12.3 8.125 12.3ZM10.2679 7.75V4.5C10.2679 4.24392 10.2124 3.99035 10.1047 3.75377C9.99705 3.51718 9.83921 3.30222 9.64023 3.12114C9.44125 2.94007 9.20502 2.79643 8.94504 2.69843C8.68505 2.60044 8.4064 2.55 8.125 2.55C7.8436 2.55 7.56495 2.60044 7.30496 2.69843C7.04498 2.79643 6.80875 2.94007 6.60977 3.12114C6.41079 3.30222 6.25295 3.51718 6.14526 3.75377C6.03757 3.99035 5.98214 4.24392 5.98214 4.5V7.75H10.2679Z" fill="white"/>
</svg>
