<svg width="15" height="15" viewBox="0 0 15 15" fill="none" xmlns="http://www.w3.org/2000/svg">
<g clip-path="url(#clip0_274_59)">
<path d="M14.9705 2.85609C14.409 3.10289 13.8144 3.26588 13.2056 3.33984C13.8474 2.95467 14.3278 2.35 14.558 1.63781C13.951 1.98984 13.2903 2.23989 12.6023 2.37797C12.1397 1.88365 11.5269 1.55584 10.8589 1.44539C10.1909 1.33494 9.50516 1.44803 8.90802 1.76711C8.31089 2.08619 7.83575 2.59343 7.55633 3.21012C7.27691 3.82681 7.20883 4.51848 7.36265 5.17781C4.80655 5.05828 2.54062 3.83016 1.02515 1.97484C0.749277 2.44401 0.604995 2.97887 0.607491 3.52312C0.607116 4.02908 0.731684 4.52729 0.970135 4.97353C1.20859 5.41977 1.55354 5.80022 1.97437 6.08109C1.48669 6.06635 1.00964 5.93503 0.583116 5.69813V5.73516C0.582967 6.44532 0.828371 7.1337 1.27774 7.68361C1.7271 8.23353 2.35278 8.61116 3.04874 8.7525C2.78511 8.82294 2.51349 8.85902 2.24062 8.85984C2.04327 8.85984 1.85484 8.84062 1.66687 8.80594C1.86493 9.41706 2.24859 9.95122 2.76445 10.3341C3.28031 10.7169 3.9027 10.9295 4.54499 10.942C3.45675 11.7943 2.11395 12.2566 0.73171 12.255C0.486885 12.256 0.242223 12.2422 -0.000946045 12.2137C1.4091 13.1172 3.04891 13.5969 4.72359 13.5956C10.38 13.5956 13.4709 8.91047 13.4709 4.85297C13.4709 4.72359 13.4709 4.59187 13.4611 4.45969C14.0657 4.02635 14.5868 3.48701 14.9991 2.86781L14.9705 2.85609Z" fill="white"/>
</g>
<defs>
<clipPath id="clip0_274_59">
<rect width="15" height="15" fill="white"/>
</clipPath>
</defs>
</svg>
